<svg xmlns="http://www.w3.org/2000/svg" width="800" height="708" viewBox="0 0 800 708">
  <g id="_Upload_fail_attention_icon_red" data-name=" Upload_fail_attention_icon_red" transform="translate(-10967 10454)">
    <rect id="Rectangle_17324" data-name="Rectangle 17324" width="800" height="708" transform="translate(10967 -10454)" fill="none"/>
    <path id="Image_Upload_failed_SVG" d="M555.018,548H44.981a45.7,45.7,0,0,1-12.208-1.638,44.014,44.014,0,0,1-10.724-4.575,45.341,45.341,0,0,1-22.03-37.4,43.826,43.826,0,0,1,1.206-11.57,45.568,45.568,0,0,1,4.492-11.439L260.735,23.067a45.633,45.633,0,0,1,7.586-10.092,43.839,43.839,0,0,1,9.5-7.209,45.54,45.54,0,0,1,44.362,0,43.842,43.842,0,0,1,9.5,7.209,45.608,45.608,0,0,1,7.586,10.092L594.283,481.375a45.506,45.506,0,0,1,4.492,11.439,43.861,43.861,0,0,1,1.207,11.57,45.342,45.342,0,0,1-22.03,37.4,44.014,44.014,0,0,1-10.724,4.575A45.715,45.715,0,0,1,555.018,548ZM121.337,449.943v44.8h9.554V479.38c2.4,2.64,5.736,3.978,9.922,3.978a16.879,16.879,0,0,0,8.36-2.112,15.24,15.24,0,0,0,5.91-5.936,19.563,19.563,0,0,0,0-17.808,15.241,15.241,0,0,0-5.91-5.936,16.879,16.879,0,0,0-8.36-2.111,15.641,15.641,0,0,0-5.988,1.071,11.14,11.14,0,0,0-4.363,3.213v-3.795Zm-48.569-9.913v23.99a25.121,25.121,0,0,0,1.279,8.337,16.159,16.159,0,0,0,3.836,6.165,16.4,16.4,0,0,0,6.132,3.81,26.91,26.91,0,0,0,16.338,0,16.4,16.4,0,0,0,6.133-3.81,16.169,16.169,0,0,0,3.836-6.165,25.123,25.123,0,0,0,1.279-8.337v-23.99h-9.8v23.622c0,3.939-.824,6.873-2.45,8.721s-4.016,2.784-7.1,2.784c-3.17,0-5.581-.968-7.166-2.876s-2.389-4.813-2.389-8.629V440.031Zm403.987,9.423a17.2,17.2,0,0,0-8.421,2.081,14.973,14.973,0,0,0-5.91,5.936,19.69,19.69,0,0,0,0,17.869,14.967,14.967,0,0,0,5.91,5.937,17.193,17.193,0,0,0,8.421,2.081,15.428,15.428,0,0,0,5.941-1.071,11.182,11.182,0,0,0,4.349-3.212v3.793h9.126V437.461h-9.554v15.971C484.258,450.793,480.941,449.454,476.754,449.454Zm-38.279,0a18.622,18.622,0,0,0-8.973,2.173,16.152,16.152,0,0,0-6.308,6.058,16.887,16.887,0,0,0-2.3,8.72,16.684,16.684,0,0,0,2.327,8.753,16.017,16.017,0,0,0,6.615,6.028,23.669,23.669,0,0,0,17.731.842,14.585,14.585,0,0,0,5.727-3.993l-5.083-5.509a11.08,11.08,0,0,1-3.705,2.417,12.723,12.723,0,0,1-4.563.766,10.6,10.6,0,0,1-6.247-1.776,7.787,7.787,0,0,1-3.185-4.833h24.927c.12-1.558.184-2.447.184-2.571a17.862,17.862,0,0,0-2.236-9.027,15.256,15.256,0,0,0-6.155-5.967A18.471,18.471,0,0,0,438.476,449.454Zm-79.622,14.075c-4.794,0-8.39.885-10.687,2.631a8.613,8.613,0,0,0-3.461,7.221,9.281,9.281,0,0,0,1.47,5.141,9.862,9.862,0,0,0,4.257,3.549,15.672,15.672,0,0,0,6.584,1.286,14.92,14.92,0,0,0,6.186-1.147,8.438,8.438,0,0,0,3.858-3.443v4.1H376V464.081a18.4,18.4,0,0,0-1.026-6.418A11.3,11.3,0,0,0,371.9,453.1c-2.724-2.416-6.681-3.641-11.76-3.641a29.085,29.085,0,0,0-7.747,1.04,20.818,20.818,0,0,0-6.462,2.937l3.43,6.671a13.753,13.753,0,0,1,4.318-2.233,16.709,16.709,0,0,1,5.175-.825c2.521,0,4.437.566,5.7,1.682a6.11,6.11,0,0,1,1.9,4.8Zm-82.5-14.075a17.209,17.209,0,0,0-8.422,2.081,14.972,14.972,0,0,0-5.91,5.936,19.7,19.7,0,0,0,0,17.869,14.965,14.965,0,0,0,5.91,5.937,17.2,17.2,0,0,0,8.422,2.081,15.434,15.434,0,0,0,5.941-1.071,11.177,11.177,0,0,0,4.348-3.212v3.793h9.126V437.461h-9.554v15.971C283.857,450.793,280.54,449.454,276.354,449.454Zm-40.913,14.075c-4.795,0-8.391.885-10.688,2.631a8.612,8.612,0,0,0-3.46,7.221,9.274,9.274,0,0,0,1.47,5.141,9.86,9.86,0,0,0,4.256,3.549,15.672,15.672,0,0,0,6.584,1.286,14.914,14.914,0,0,0,6.186-1.147,8.441,8.441,0,0,0,3.859-3.443v4.1h8.942V464.081a18.378,18.378,0,0,0-1.026-6.418,11.3,11.3,0,0,0-3.077-4.567c-2.724-2.416-6.68-3.641-11.759-3.641a29.088,29.088,0,0,0-7.748,1.04,20.81,20.81,0,0,0-6.461,2.937l3.43,6.671a13.738,13.738,0,0,1,4.317-2.233,16.712,16.712,0,0,1,5.176-.825c2.521,0,4.437.566,5.7,1.682a6.112,6.112,0,0,1,1.9,4.8Zm-36.5-14.075a19.862,19.862,0,0,0-9.34,2.173,16.221,16.221,0,0,0-6.461,6.029,17.616,17.616,0,0,0,0,17.5,16.243,16.243,0,0,0,6.461,6.028,21.1,21.1,0,0,0,18.65,0,16.292,16.292,0,0,0,6.431-6.028,17.616,17.616,0,0,0,0-17.5,16.28,16.28,0,0,0-6.431-6.029A19.678,19.678,0,0,0,198.937,449.454ZM404.3,437.461v45.408h9.554V437.461Zm-19.048,12.483v32.925h9.554V449.943Zm-66.025.736v7.343h5.084v24.847h9.554V458.021h8.207v-7.343H333.62v-1.408a5.182,5.182,0,0,1,1.087-3.58,4.209,4.209,0,0,1,3.261-1.193,6.574,6.574,0,0,1,3.859,1.163l2.511-6.914a9.933,9.933,0,0,0-3.216-1.317,17.664,17.664,0,0,0-4.072-.46c-4.024,0-7.187,1.112-9.4,3.306a12.055,12.055,0,0,0-3.338,8.934v1.469ZM164.21,437.461v45.408h9.554V437.461Zm225.818-2.754a6.089,6.089,0,0,0-4.288,1.53,5.18,5.18,0,0,0,0,7.588,6.089,6.089,0,0,0,4.288,1.531,6.02,6.02,0,0,0,4.288-1.562,5.215,5.215,0,0,0,1.653-3.947,4.726,4.726,0,0,0-1.653-3.672A6.245,6.245,0,0,0,390.029,434.706Zm-89.711-99.673a30.807,30.807,0,0,0-12.222,2.525,32.5,32.5,0,0,0-16.934,16.921,30.774,30.774,0,0,0,0,24.423,32.5,32.5,0,0,0,16.934,16.92,30.809,30.809,0,0,0,12.222,2.525,30.079,30.079,0,0,0,12.394-2.712,33.108,33.108,0,0,0,10.265-7.261,30.556,30.556,0,0,0,6.273-9.6,26.6,26.6,0,0,0,1.99-11.326,31.31,31.31,0,0,0-2.044-12.638,30.912,30.912,0,0,0-28.878-19.778ZM300.1,111.909a33.437,33.437,0,0,0-7.64.894,32.478,32.478,0,0,0-17.884,12.679A37.831,37.831,0,0,0,268,147.372c.381,5.018.737,10.152,1.081,15.117l0,.04c.341,4.92.693,10.008,1.07,14.981,1.072,18.97,2.163,38.07,3.217,56.54l.017.3c1.053,18.441,2.142,37.51,3.229,56.742a24.6,24.6,0,0,0,2.206,8.931,22.734,22.734,0,0,0,12.443,11.689,24.785,24.785,0,0,0,9.049,1.666,23.394,23.394,0,0,0,16.459-6.632,24.467,24.467,0,0,0,7.24-16.413c0-7.749,0-15.069.76-23.046.7-12.229,1.438-24.652,2.155-36.667s1.457-24.431,2.154-36.65c.38-7.912.928-15.957,1.457-23.736v-.007c.53-7.779,1.077-15.823,1.458-23.743a38.722,38.722,0,0,0-2.915-15.828,32.037,32.037,0,0,0-11.887-13.79A31.7,31.7,0,0,0,300.1,111.909Zm59.306,365.023a6.518,6.518,0,0,1-3.951-1.071,3.443,3.443,0,0,1-1.439-2.906,3.239,3.239,0,0,1,1.471-2.891,8.161,8.161,0,0,1,4.409-.964h6.554v3.366a6.229,6.229,0,0,1-2.695,3.334A8.368,8.368,0,0,1,359.405,476.932Zm-123.413,0a6.517,6.517,0,0,1-3.95-1.071,3.444,3.444,0,0,1-1.44-2.906,3.239,3.239,0,0,1,1.471-2.891,8.161,8.161,0,0,1,4.409-.964h6.554v3.366a6.228,6.228,0,0,1-2.695,3.334A8.368,8.368,0,0,1,235.992,476.932Zm242.417-1.408a8.093,8.093,0,0,1-6.063-2.477,10.421,10.421,0,0,1,0-13.28,8.583,8.583,0,0,1,12.065,0,10.424,10.424,0,0,1,0,13.28A8.02,8.02,0,0,1,478.409,475.524Zm-200.4,0a8.093,8.093,0,0,1-6.063-2.477,10.424,10.424,0,0,1,0-13.28,8.583,8.583,0,0,1,12.065,0,10.424,10.424,0,0,1,0,13.28A8.02,8.02,0,0,1,278.007,475.524Zm-79.07,0a8.093,8.093,0,0,1-6.063-2.477,10.424,10.424,0,0,1,0-13.28,8.1,8.1,0,0,1,6.063-2.477,8,8,0,0,1,6.033,2.477,10.525,10.525,0,0,1,0,13.28A7.993,7.993,0,0,1,198.937,475.524Zm-59.777,0a8,8,0,0,1-6.033-2.477,10.528,10.528,0,0,1,0-13.28,8.584,8.584,0,0,1,12.065,0,10.528,10.528,0,0,1,0,13.28A8,8,0,0,1,139.16,475.524Zm307.461-11.994h-16.23a7.849,7.849,0,0,1,2.695-5.018,8.273,8.273,0,0,1,5.451-1.836,8.1,8.1,0,0,1,5.389,1.867,7.921,7.921,0,0,1,2.695,4.986Z" transform="translate(11067 -10374)" fill="#d80b0b" opacity="0.796"/>
  </g>
</svg>
